# xmcd
#
# Track frame offsets:
#       150
#       11268
#       19888
#       33359
#       42451
#       60474
#       72728
#       84836
#       101859
#       117423
#       129862
#       139192
#       160575
#       175417
#       190893
#       209135
#       220403
#       239609
#       250365
#       261199
#       269225
#       283876
#
# Disc length: 3953 seconds
#
# Revision: 1
# Processed by: cddbd v1.5.2PL0 Copyright (c) Steve Scherf et al.
# Submitted via: FreeDbEdit v0.1
#
DISCID=5a0f6f16
DTITLE=Nat King Cole - The Very Best Of
DYEAR=2001
DGENRE=pop
TTITLE0=Sweet Geortia Brown
TTITLE1=Yes Sir, That's My Baby
TTITLE2=On the Sunny Side of the Street
TTITLE3=Paper Moon
TTITLE4=Body and Soul
TTITLE5=Tea for Two
TTITLE6=Sweet Lorraine
TTITLE7=Old Piano Plays the Blues
TTITLE8=Don't Cry, Cry Baby
TTITLE9=If You Can't Smile and Say Yes
TTITLE10=Miss Thing
TTITLE11=Nat Meets June
TTITLE12=Blues
TTITLE13=Satchel Mouth Baby
TTITLE14=Cole's Bop Blues
TTITLE15=Last but Not Least
TTITLE16=The Trouble With Me Is You
TTITLE17=The Greatest Inventor
TTITLE18=Firm From Sauce
TTITLE19=I'm Lost
TTITLE20=Let's Pretend
TTITLE21=Melancholy Madeline
EXTD=
EXTT0=
EXTT1=
EXTT2=
EXTT3=
EXTT4=
EXTT5=
EXTT6=
EXTT7=
EXTT8=
EXTT9=
EXTT10=
EXTT11=
EXTT12=
EXTT13=
EXTT14=
EXTT15=
EXTT16=
EXTT17=
EXTT18=
EXTT19=
EXTT20=
EXTT21=
PLAYORDER=
